<svg xmlns="http://www.w3.org/2000/svg" xmlns:xlink="http://www.w3.org/1999/xlink" width="500" zoomAndPan="magnify" viewBox="0 0 375 374.999991" height="500" preserveAspectRatio="xMidYMid meet" version="1.0"><defs><clipPath id="0108465cc5"><path d="M 58 0 L 317 0 L 317 375 L 58 375 Z M 58 0 " clip-rule="nonzero"/></clipPath><clipPath id="801a3e1fd8"><path d="M 239.046875 356.804688 C 239.128906 356.804688 262.125 361.597656 272.773438 339.019531 C 260.824219 342.105469 244.003906 342.59375 227.832031 337.964844 C 209.546875 332.683594 191.996094 320.988281 182.972656 299.300781 C 182.484375 298.082031 181.917969 296.703125 181.429688 295.160156 C 170.378906 263.238281 169.078125 233.917969 169.402344 218.242188 C 163.144531 227.90625 157.050781 238.710938 152.660156 251.707031 C 146.648438 269.332031 143.640625 291.179688 147.296875 320.417969 L 147.949219 325.699219 L 142.992188 323.75 C 142.910156 323.75 119.910156 315.140625 100.8125 283.707031 C 100.40625 294.753906 100.734375 306.207031 102.847656 317.332031 C 105.691406 331.953125 111.785156 346.085938 123.976562 358.105469 L 141.121094 374.917969 L 120.15625 363.140625 C 100.570312 352.175781 86.023438 342.835938 75.945312 330.003906 C 65.789062 317.089844 60.507812 300.84375 59.53125 276.152344 L 58.71875 255.523438 L 65.707031 275.015625 C 66.925781 278.425781 67.171875 278.996094 67.332031 279.644531 L 68.226562 282.164062 C 65.140625 265.511719 63.921875 243.910156 72.859375 227.421875 C 77.574219 218.730469 83.34375 210.28125 88.949219 202.242188 C 102.035156 183.234375 113.898438 166.015625 106.421875 152.289062 L 99.675781 139.863281 L 111.136719 148.148438 C 131.125 162.6875 127.226562 172.839844 121.292969 188.109375 C 120.644531 189.816406 119.910156 191.683594 119.097656 194.039062 C 115.6875 203.542969 113.085938 216.128906 114.386719 229.207031 C 115.035156 235.625 116.660156 242.121094 119.667969 248.457031 C 120.316406 226.933594 125.273438 180.554688 154.855469 150.992188 C 158.839844 147.011719 164.203125 141.730469 169.484375 136.535156 C 201.097656 105.261719 226.9375 79.757812 223.605469 65.871094 C 221.898438 58.96875 218.160156 59.046875 214.34375 59.128906 C 208.574219 59.210938 202.722656 59.371094 198.902344 50.277344 C 191.667969 32.894531 226.695312 10.394531 226.855469 10.394531 L 242.703125 0.0820312 L 231.082031 15.027344 C 231 15.105469 207.191406 45.484375 227.183594 48.40625 C 241.402344 50.519531 250.179688 53.929688 251.96875 64.488281 C 253.511719 73.832031 248.230469 88.773438 234.496094 113.953125 C 221.332031 138.078125 211.496094 160.574219 211.417969 176.332031 C 211.335938 190.628906 220.355469 199.15625 244.492188 197.449219 C 250.832031 197.042969 254.8125 193.632812 256.4375 189.488281 C 257.085938 187.785156 257.332031 185.996094 257.167969 184.210938 C 257.007812 182.503906 256.355469 180.800781 255.382812 179.257812 C 252.78125 175.4375 247.335938 172.921875 238.640625 174.058594 C 231.164062 175.03125 226.371094 173.246094 223.929688 169.753906 C 222.144531 167.316406 221.65625 164.3125 222.0625 160.898438 C 222.46875 157.894531 223.605469 154.644531 225.3125 151.476562 C 230.839844 141.246094 242.703125 130.765625 254.324219 130.359375 L 260.90625 130.199219 L 256.925781 135.476562 C 255.460938 137.507812 253.835938 139.457031 252.457031 141.164062 C 250.097656 144.085938 248.148438 146.523438 247.253906 148.472656 C 244.898438 153.589844 251.398438 158.136719 283.011719 172.597656 L 283.253906 172.757812 C 286.667969 174.707031 289.105469 177.226562 290.570312 180.066406 C 292.277344 183.234375 292.761719 186.890625 292.277344 190.707031 C 291.789062 194.363281 290.40625 198.179688 288.132812 202.078125 C 282.199219 212.3125 270.171875 223.277344 253.59375 232.050781 C 239.777344 239.359375 231.488281 249.023438 227.183594 259.097656 C 224.09375 266.40625 223.039062 273.878906 223.445312 280.863281 C 225.3125 275.261719 228.320312 272.5 236.121094 268.4375 L 244.816406 263.890625 L 240.429688 272.660156 C 239.535156 274.449219 238.640625 276.398438 237.910156 278.507812 C 236.285156 282.976562 235.226562 287.6875 235.472656 291.746094 C 235.632812 295.078125 236.691406 297.757812 239.128906 298.976562 C 239.453125 299.140625 239.695312 299.21875 239.859375 299.300781 C 242.136719 300.113281 244.652344 300.355469 246.929688 299.789062 C 248.472656 299.464844 249.855469 298.734375 251.15625 297.597656 C 252.457031 296.457031 253.59375 294.835938 254.324219 292.640625 C 256.03125 287.929688 256.273438 280.863281 253.835938 270.710938 C 251.722656 261.535156 252.457031 253.25 255.382812 246.589844 C 257.65625 241.308594 261.3125 237.167969 265.945312 234.40625 C 270.578125 231.644531 276.105469 230.34375 282.199219 230.914062 C 290.082031 231.644531 298.9375 235.460938 307.878906 243.175781 L 316.332031 250.570312 L 305.195312 248.78125 C 294.957031 247.074219 285.855469 247.074219 279.679688 248.945312 C 276.917969 249.757812 274.886719 250.894531 273.746094 252.355469 C 272.773438 253.65625 272.367188 255.28125 272.773438 257.390625 C 273.421875 260.394531 275.535156 264.132812 279.515625 268.761719 C 286.179688 276.398438 294.0625 287.441406 299.671875 299.625 C 304.382812 309.777344 307.472656 320.824219 307.148438 331.382812 C 306.742188 342.269531 302.757812 352.582031 293.089844 361.03125 C 289.269531 364.359375 284.636719 367.363281 278.949219 369.964844 L 278.542969 370.125 C 258.875 376.300781 245.628906 368.339844 238.804688 364.277344 C 237.992188 363.792969 237.339844 363.386719 236.691406 363.058594 L 218.082031 352.988281 L 238.882812 357.050781 Z M 239.046875 356.804688 " clip-rule="nonzero"/></clipPath><linearGradient x1="36.346892" gradientTransform="matrix(8.126536, 0, 0, 8.122157, 58.637725, 0)" y1="4.739345" x2="-2.891509" gradientUnits="userSpaceOnUse" y2="43.210635" id="b3d36ccb02"><stop stop-opacity="1" stop-color="rgb(93.59436%, 26.747131%, 21.337891%)" offset="0"/><stop stop-opacity="1" stop-color="rgb(93.609619%, 26.902771%, 21.331787%)" offset="0.015625"/><stop stop-opacity="1" stop-color="rgb(93.640137%, 27.215576%, 21.321106%)" offset="0.03125"/><stop stop-opacity="1" stop-color="rgb(93.670654%, 27.529907%, 21.308899%)" offset="0.046875"/><stop stop-opacity="1" stop-color="rgb(93.701172%, 27.842712%, 21.298218%)" offset="0.0625"/><stop stop-opacity="1" stop-color="rgb(93.731689%, 28.155518%, 21.286011%)" offset="0.078125"/><stop stop-opacity="1" stop-color="rgb(93.762207%, 28.468323%, 21.27533%)" offset="0.09375"/><stop stop-opacity="1" stop-color="rgb(93.792725%, 28.781128%, 21.264648%)" offset="0.109375"/><stop stop-opacity="1" stop-color="rgb(93.823242%, 29.093933%, 21.252441%)" offset="0.125"/><stop stop-opacity="1" stop-color="rgb(93.85376%, 29.406738%, 21.24176%)" offset="0.140625"/><stop stop-opacity="1" stop-color="rgb(93.884277%, 29.719543%, 21.229553%)" offset="0.15625"/><stop stop-opacity="1" stop-color="rgb(93.914795%, 30.032349%, 21.218872%)" offset="0.171875"/><stop stop-opacity="1" stop-color="rgb(93.943787%, 30.34668%, 21.206665%)" offset="0.1875"/><stop stop-opacity="1" stop-color="rgb(93.974304%, 30.659485%, 21.195984%)" offset="0.203125"/><stop stop-opacity="1" stop-color="rgb(94.004822%, 30.97229%, 21.183777%)" offset="0.21875"/><stop stop-opacity="1" stop-color="rgb(94.035339%, 31.285095%, 21.173096%)" offset="0.234375"/><stop stop-opacity="1" stop-color="rgb(94.065857%, 31.5979%, 21.160889%)" offset="0.25"/><stop stop-opacity="1" stop-color="rgb(94.096375%, 31.910706%, 21.150208%)" offset="0.265625"/><stop stop-opacity="1" stop-color="rgb(94.126892%, 32.223511%, 21.138%)" offset="0.28125"/><stop stop-opacity="1" stop-color="rgb(94.15741%, 32.536316%, 21.127319%)" offset="0.296875"/><stop stop-opacity="1" stop-color="rgb(94.187927%, 32.849121%, 21.115112%)" offset="0.3125"/><stop stop-opacity="1" stop-color="rgb(94.218445%, 33.161926%, 21.104431%)" offset="0.328125"/><stop stop-opacity="1" stop-color="rgb(94.248962%, 33.476257%, 21.092224%)" offset="0.34375"/><stop stop-opacity="1" stop-color="rgb(94.27948%, 33.789062%, 21.081543%)" offset="0.359375"/><stop stop-opacity="1" stop-color="rgb(94.309998%, 34.101868%, 21.069336%)" offset="0.375"/><stop stop-opacity="1" stop-color="rgb(94.340515%, 34.414673%, 21.058655%)" offset="0.390625"/><stop stop-opacity="1" stop-color="rgb(94.371033%, 34.727478%, 21.046448%)" offset="0.40625"/><stop stop-opacity="1" stop-color="rgb(94.40155%, 35.040283%, 21.035767%)" offset="0.411915"/><stop stop-opacity="1" stop-color="rgb(94.416809%, 35.197449%, 21.029663%)" offset="0.421875"/><stop stop-opacity="1" stop-color="rgb(94.432068%, 35.353088%, 21.02356%)" offset="0.4375"/><stop stop-opacity="1" stop-color="rgb(94.462585%, 35.665894%, 21.012878%)" offset="0.453125"/><stop stop-opacity="1" stop-color="rgb(94.493103%, 35.978699%, 21.000671%)" offset="0.46875"/><stop stop-opacity="1" stop-color="rgb(94.523621%, 36.29303%, 20.98999%)" offset="0.484375"/><stop stop-opacity="1" stop-color="rgb(94.552612%, 36.605835%, 20.977783%)" offset="0.5"/><stop stop-opacity="1" stop-color="rgb(94.58313%, 36.91864%, 20.967102%)" offset="0.515625"/><stop stop-opacity="1" stop-color="rgb(94.613647%, 37.231445%, 20.956421%)" offset="0.53125"/><stop stop-opacity="1" stop-color="rgb(94.644165%, 37.54425%, 20.944214%)" offset="0.546875"/><stop stop-opacity="1" stop-color="rgb(94.674683%, 37.857056%, 20.933533%)" offset="0.5625"/><stop stop-opacity="1" stop-color="rgb(94.7052%, 38.169861%, 20.921326%)" offset="0.578125"/><stop stop-opacity="1" stop-color="rgb(94.735718%, 38.482666%, 20.910645%)" offset="0.588085"/><stop stop-opacity="1" stop-color="rgb(94.750977%, 38.639832%, 20.904541%)" offset="0.59375"/><stop stop-opacity="1" stop-color="rgb(94.766235%, 38.795471%, 20.898438%)" offset="0.609375"/><stop stop-opacity="1" stop-color="rgb(94.796753%, 39.109802%, 20.887756%)" offset="0.625"/><stop stop-opacity="1" stop-color="rgb(94.827271%, 39.422607%, 20.875549%)" offset="0.640625"/><stop stop-opacity="1" stop-color="rgb(94.857788%, 39.735413%, 20.864868%)" offset="0.65625"/><stop stop-opacity="1" stop-color="rgb(94.888306%, 40.048218%, 20.852661%)" offset="0.671875"/><stop stop-opacity="1" stop-color="rgb(94.918823%, 40.361023%, 20.84198%)" offset="0.6875"/><stop stop-opacity="1" stop-color="rgb(94.949341%, 40.673828%, 20.829773%)" offset="0.703125"/><stop stop-opacity="1" stop-color="rgb(94.979858%, 40.986633%, 20.819092%)" offset="0.71875"/><stop stop-opacity="1" stop-color="rgb(95.010376%, 41.299438%, 20.806885%)" offset="0.734375"/><stop stop-opacity="1" stop-color="rgb(95.040894%, 41.612244%, 20.796204%)" offset="0.75"/><stop stop-opacity="1" stop-color="rgb(95.071411%, 41.926575%, 20.783997%)" offset="0.765625"/><stop stop-opacity="1" stop-color="rgb(95.101929%, 42.23938%, 20.773315%)" offset="0.78125"/><stop stop-opacity="1" stop-color="rgb(95.132446%, 42.552185%, 20.761108%)" offset="0.796875"/><stop stop-opacity="1" stop-color="rgb(95.161438%, 42.86499%, 20.750427%)" offset="0.8125"/><stop stop-opacity="1" stop-color="rgb(95.191956%, 43.177795%, 20.73822%)" offset="0.828125"/><stop stop-opacity="1" stop-color="rgb(95.222473%, 43.490601%, 20.727539%)" offset="0.84375"/><stop stop-opacity="1" stop-color="rgb(95.252991%, 43.803406%, 20.715332%)" offset="0.859375"/><stop stop-opacity="1" stop-color="rgb(95.283508%, 44.116211%, 20.704651%)" offset="0.875"/><stop stop-opacity="1" stop-color="rgb(95.314026%, 44.429016%, 20.692444%)" offset="0.890625"/><stop stop-opacity="1" stop-color="rgb(95.344543%, 44.743347%, 20.681763%)" offset="0.90625"/><stop stop-opacity="1" stop-color="rgb(95.375061%, 45.056152%, 20.669556%)" offset="0.921875"/><stop stop-opacity="1" stop-color="rgb(95.405579%, 45.368958%, 20.658875%)" offset="0.9375"/><stop stop-opacity="1" stop-color="rgb(95.436096%, 45.681763%, 20.648193%)" offset="0.953125"/><stop stop-opacity="1" stop-color="rgb(95.466614%, 45.994568%, 20.635986%)" offset="0.96875"/><stop stop-opacity="1" stop-color="rgb(95.497131%, 46.307373%, 20.625305%)" offset="0.984375"/><stop stop-opacity="1" stop-color="rgb(95.527649%, 46.620178%, 20.613098%)" offset="1"/></linearGradient></defs><g clip-path="url(#0108465cc5)"><g clip-path="url(#801a3e1fd8)"><path fill="url(#b3d36ccb02)" d="M 58.71875 0.0820312 L 58.71875 375 L 316.332031 375 L 316.332031 0.0820312 Z M 58.71875 0.0820312 " fill-rule="nonzero"/></g></g></svg>
