<svg xmlns="http://www.w3.org/2000/svg" xmlns:xlink="http://www.w3.org/1999/xlink" width="500" zoomAndPan="magnify" viewBox="0 0 375 374.999991" height="500" preserveAspectRatio="xMidYMid meet" version="1.0"><defs><g/><clipPath id="b6b658e631"><path d="M 134.046875 64.257812 L 241 64.257812 L 241 218 L 134.046875 218 Z M 134.046875 64.257812 " clip-rule="nonzero"/></clipPath><clipPath id="256c966b1d"><path d="M 208.824219 210.546875 C 208.859375 210.546875 218.308594 212.511719 222.683594 203.253906 C 217.777344 204.519531 210.863281 204.71875 204.21875 202.820312 C 196.703125 200.65625 189.488281 195.863281 185.78125 186.96875 C 185.582031 186.472656 185.347656 185.90625 185.148438 185.273438 C 180.605469 172.183594 180.074219 160.164062 180.207031 153.734375 C 177.636719 157.699219 175.128906 162.128906 173.328125 167.457031 C 170.855469 174.683594 169.621094 183.640625 171.121094 195.628906 L 171.390625 197.792969 L 169.351562 196.992188 C 169.320312 196.992188 159.867188 193.464844 152.019531 180.578125 C 151.855469 185.105469 151.988281 189.800781 152.855469 194.363281 C 154.023438 200.355469 156.527344 206.152344 161.539062 211.082031 L 168.585938 217.972656 L 159.96875 213.144531 C 151.921875 208.648438 145.941406 204.820312 141.800781 199.558594 C 137.628906 194.261719 135.457031 187.601562 135.054688 177.480469 L 134.722656 169.019531 L 137.59375 177.011719 C 138.09375 178.410156 138.195312 178.644531 138.261719 178.910156 L 138.628906 179.945312 C 137.359375 173.117188 136.859375 164.257812 140.53125 157.5 C 142.46875 153.9375 144.839844 150.472656 147.144531 147.175781 C 152.523438 139.382812 157.398438 132.324219 154.324219 126.695312 L 151.554688 121.601562 L 156.261719 124.996094 C 164.476562 130.957031 162.875 135.121094 160.4375 141.382812 C 160.167969 142.082031 159.867188 142.847656 159.535156 143.8125 C 158.132812 147.707031 157.0625 152.871094 157.597656 158.230469 C 157.863281 160.863281 158.53125 163.527344 159.769531 166.125 C 160.035156 157.300781 162.074219 138.285156 174.226562 126.164062 C 175.863281 124.53125 178.070312 122.367188 180.238281 120.234375 C 193.230469 107.414062 203.851562 96.957031 202.480469 91.265625 C 201.78125 88.433594 200.242188 88.464844 198.671875 88.5 C 196.300781 88.53125 193.898438 88.601562 192.328125 84.871094 C 189.355469 77.742188 203.75 68.519531 203.816406 68.519531 L 210.328125 64.289062 L 205.554688 70.417969 C 205.519531 70.449219 195.734375 82.90625 203.949219 84.105469 C 209.792969 84.96875 213.402344 86.367188 214.136719 90.699219 C 214.769531 94.527344 212.597656 100.65625 206.957031 110.976562 C 201.546875 120.867188 197.503906 130.09375 197.472656 136.554688 C 197.4375 142.414062 201.144531 145.910156 211.0625 145.210938 C 213.667969 145.042969 215.304688 143.644531 215.972656 141.949219 C 216.238281 141.25 216.339844 140.515625 216.273438 139.78125 C 216.207031 139.082031 215.9375 138.382812 215.539062 137.75 C 214.46875 136.1875 212.230469 135.152344 208.660156 135.621094 C 205.585938 136.019531 203.617188 135.289062 202.613281 133.855469 C 201.878906 132.855469 201.679688 131.625 201.847656 130.226562 C 202.011719 128.992188 202.480469 127.660156 203.183594 126.363281 C 205.453125 122.167969 210.328125 117.871094 215.105469 117.703125 L 217.808594 117.636719 L 216.171875 119.800781 C 215.570312 120.636719 214.902344 121.433594 214.335938 122.132812 C 213.367188 123.332031 212.566406 124.332031 212.199219 125.128906 C 211.230469 127.230469 213.902344 129.09375 226.890625 135.019531 L 226.992188 135.085938 C 228.394531 135.886719 229.398438 136.917969 230 138.085938 C 230.699219 139.382812 230.898438 140.882812 230.699219 142.445312 C 230.5 143.945312 229.929688 145.511719 228.996094 147.109375 C 226.558594 151.304688 221.617188 155.800781 214.804688 159.398438 C 209.125 162.394531 205.71875 166.355469 203.949219 170.488281 C 202.679688 173.484375 202.246094 176.546875 202.414062 179.410156 C 203.183594 177.113281 204.417969 175.980469 207.625 174.316406 L 211.195312 172.449219 L 209.394531 176.046875 C 209.027344 176.78125 208.660156 177.578125 208.359375 178.445312 C 207.691406 180.277344 207.257812 182.207031 207.355469 183.875 C 207.421875 185.238281 207.855469 186.335938 208.859375 186.835938 C 208.992188 186.902344 209.09375 186.9375 209.160156 186.96875 C 210.09375 187.304688 211.128906 187.402344 212.066406 187.171875 C 212.699219 187.035156 213.265625 186.738281 213.800781 186.269531 C 214.335938 185.804688 214.804688 185.140625 215.105469 184.238281 C 215.804688 182.308594 215.90625 179.410156 214.902344 175.25 C 214.035156 171.484375 214.335938 168.089844 215.539062 165.359375 C 216.472656 163.195312 217.976562 161.496094 219.878906 160.363281 C 221.78125 159.230469 224.054688 158.699219 226.558594 158.929688 C 229.796875 159.230469 233.4375 160.796875 237.113281 163.960938 L 240.585938 166.988281 L 236.007812 166.257812 C 231.800781 165.558594 228.0625 165.558594 225.523438 166.324219 C 224.386719 166.65625 223.554688 167.121094 223.085938 167.722656 C 222.683594 168.253906 222.519531 168.921875 222.683594 169.789062 C 222.953125 171.019531 223.820312 172.550781 225.457031 174.449219 C 228.195312 177.578125 231.433594 182.109375 233.738281 187.105469 C 235.675781 191.265625 236.945312 195.796875 236.8125 200.125 C 236.644531 204.585938 235.007812 208.816406 231.035156 212.277344 C 229.464844 213.644531 227.558594 214.875 225.222656 215.941406 L 225.054688 216.007812 C 216.972656 218.539062 211.53125 215.277344 208.726562 213.609375 C 208.390625 213.410156 208.125 213.246094 207.855469 213.113281 L 200.210938 208.980469 L 208.757812 210.648438 Z M 208.824219 210.546875 " clip-rule="nonzero"/></clipPath><linearGradient x1="36.346894" gradientTransform="matrix(3.339508, 0, 0, 3.330084, 134.688722, 64.256748)" y1="4.739344" x2="-2.891509" gradientUnits="userSpaceOnUse" y2="43.210635" id="342e113b13"><stop stop-opacity="1" stop-color="rgb(93.59436%, 26.747131%, 21.337891%)" offset="0"/><stop stop-opacity="1" stop-color="rgb(93.609619%, 26.902771%, 21.331787%)" offset="0.015625"/><stop stop-opacity="1" stop-color="rgb(93.640137%, 27.215576%, 21.321106%)" offset="0.03125"/><stop stop-opacity="1" stop-color="rgb(93.670654%, 27.529907%, 21.308899%)" offset="0.046875"/><stop stop-opacity="1" stop-color="rgb(93.701172%, 27.842712%, 21.298218%)" offset="0.0625"/><stop stop-opacity="1" stop-color="rgb(93.731689%, 28.155518%, 21.286011%)" offset="0.078125"/><stop stop-opacity="1" stop-color="rgb(93.762207%, 28.468323%, 21.27533%)" offset="0.09375"/><stop stop-opacity="1" stop-color="rgb(93.792725%, 28.781128%, 21.264648%)" offset="0.109375"/><stop stop-opacity="1" stop-color="rgb(93.823242%, 29.093933%, 21.252441%)" offset="0.125"/><stop stop-opacity="1" stop-color="rgb(93.85376%, 29.406738%, 21.24176%)" offset="0.140625"/><stop stop-opacity="1" stop-color="rgb(93.884277%, 29.719543%, 21.229553%)" offset="0.15625"/><stop stop-opacity="1" stop-color="rgb(93.914795%, 30.032349%, 21.218872%)" offset="0.171875"/><stop stop-opacity="1" stop-color="rgb(93.943787%, 30.34668%, 21.206665%)" offset="0.1875"/><stop stop-opacity="1" stop-color="rgb(93.974304%, 30.659485%, 21.195984%)" offset="0.203125"/><stop stop-opacity="1" stop-color="rgb(94.004822%, 30.97229%, 21.183777%)" offset="0.21875"/><stop stop-opacity="1" stop-color="rgb(94.035339%, 31.285095%, 21.173096%)" offset="0.234375"/><stop stop-opacity="1" stop-color="rgb(94.065857%, 31.5979%, 21.160889%)" offset="0.25"/><stop stop-opacity="1" stop-color="rgb(94.096375%, 31.910706%, 21.150208%)" offset="0.265625"/><stop stop-opacity="1" stop-color="rgb(94.126892%, 32.223511%, 21.138%)" offset="0.28125"/><stop stop-opacity="1" stop-color="rgb(94.15741%, 32.536316%, 21.127319%)" offset="0.296875"/><stop stop-opacity="1" stop-color="rgb(94.187927%, 32.849121%, 21.115112%)" offset="0.3125"/><stop stop-opacity="1" stop-color="rgb(94.218445%, 33.161926%, 21.104431%)" offset="0.328125"/><stop stop-opacity="1" stop-color="rgb(94.248962%, 33.476257%, 21.092224%)" offset="0.34375"/><stop stop-opacity="1" stop-color="rgb(94.27948%, 33.789062%, 21.081543%)" offset="0.359375"/><stop stop-opacity="1" stop-color="rgb(94.309998%, 34.101868%, 21.069336%)" offset="0.375"/><stop stop-opacity="1" stop-color="rgb(94.340515%, 34.414673%, 21.058655%)" offset="0.390625"/><stop stop-opacity="1" stop-color="rgb(94.371033%, 34.727478%, 21.046448%)" offset="0.40625"/><stop stop-opacity="1" stop-color="rgb(94.40155%, 35.040283%, 21.035767%)" offset="0.411915"/><stop stop-opacity="1" stop-color="rgb(94.416809%, 35.197449%, 21.029663%)" offset="0.421875"/><stop stop-opacity="1" stop-color="rgb(94.432068%, 35.353088%, 21.02356%)" offset="0.4375"/><stop stop-opacity="1" stop-color="rgb(94.462585%, 35.665894%, 21.012878%)" offset="0.453125"/><stop stop-opacity="1" stop-color="rgb(94.493103%, 35.978699%, 21.000671%)" offset="0.46875"/><stop stop-opacity="1" stop-color="rgb(94.523621%, 36.29303%, 20.98999%)" offset="0.484375"/><stop stop-opacity="1" stop-color="rgb(94.552612%, 36.605835%, 20.977783%)" offset="0.5"/><stop stop-opacity="1" stop-color="rgb(94.58313%, 36.91864%, 20.967102%)" offset="0.515625"/><stop stop-opacity="1" stop-color="rgb(94.613647%, 37.231445%, 20.956421%)" offset="0.53125"/><stop stop-opacity="1" stop-color="rgb(94.644165%, 37.54425%, 20.944214%)" offset="0.546875"/><stop stop-opacity="1" stop-color="rgb(94.674683%, 37.857056%, 20.933533%)" offset="0.5625"/><stop stop-opacity="1" stop-color="rgb(94.7052%, 38.169861%, 20.921326%)" offset="0.578125"/><stop stop-opacity="1" stop-color="rgb(94.735718%, 38.482666%, 20.910645%)" offset="0.588085"/><stop stop-opacity="1" stop-color="rgb(94.750977%, 38.639832%, 20.904541%)" offset="0.59375"/><stop stop-opacity="1" stop-color="rgb(94.766235%, 38.795471%, 20.898438%)" offset="0.609375"/><stop stop-opacity="1" stop-color="rgb(94.796753%, 39.109802%, 20.887756%)" offset="0.625"/><stop stop-opacity="1" stop-color="rgb(94.827271%, 39.422607%, 20.875549%)" offset="0.640625"/><stop stop-opacity="1" stop-color="rgb(94.857788%, 39.735413%, 20.864868%)" offset="0.65625"/><stop stop-opacity="1" stop-color="rgb(94.888306%, 40.048218%, 20.852661%)" offset="0.671875"/><stop stop-opacity="1" stop-color="rgb(94.918823%, 40.361023%, 20.84198%)" offset="0.6875"/><stop stop-opacity="1" stop-color="rgb(94.949341%, 40.673828%, 20.829773%)" offset="0.703125"/><stop stop-opacity="1" stop-color="rgb(94.979858%, 40.986633%, 20.819092%)" offset="0.71875"/><stop stop-opacity="1" stop-color="rgb(95.010376%, 41.299438%, 20.806885%)" offset="0.734375"/><stop stop-opacity="1" stop-color="rgb(95.040894%, 41.612244%, 20.796204%)" offset="0.75"/><stop stop-opacity="1" stop-color="rgb(95.071411%, 41.926575%, 20.783997%)" offset="0.765625"/><stop stop-opacity="1" stop-color="rgb(95.101929%, 42.23938%, 20.773315%)" offset="0.78125"/><stop stop-opacity="1" stop-color="rgb(95.132446%, 42.552185%, 20.761108%)" offset="0.796875"/><stop stop-opacity="1" stop-color="rgb(95.161438%, 42.86499%, 20.750427%)" offset="0.8125"/><stop stop-opacity="1" stop-color="rgb(95.191956%, 43.177795%, 20.73822%)" offset="0.828125"/><stop stop-opacity="1" stop-color="rgb(95.222473%, 43.490601%, 20.727539%)" offset="0.84375"/><stop stop-opacity="1" stop-color="rgb(95.252991%, 43.803406%, 20.715332%)" offset="0.859375"/><stop stop-opacity="1" stop-color="rgb(95.283508%, 44.116211%, 20.704651%)" offset="0.875"/><stop stop-opacity="1" stop-color="rgb(95.314026%, 44.429016%, 20.692444%)" offset="0.890625"/><stop stop-opacity="1" stop-color="rgb(95.344543%, 44.743347%, 20.681763%)" offset="0.90625"/><stop stop-opacity="1" stop-color="rgb(95.375061%, 45.056152%, 20.669556%)" offset="0.921875"/><stop stop-opacity="1" stop-color="rgb(95.405579%, 45.368958%, 20.658875%)" offset="0.9375"/><stop stop-opacity="1" stop-color="rgb(95.436096%, 45.681763%, 20.648193%)" offset="0.953125"/><stop stop-opacity="1" stop-color="rgb(95.466614%, 45.994568%, 20.635986%)" offset="0.96875"/><stop stop-opacity="1" stop-color="rgb(95.497131%, 46.307373%, 20.625305%)" offset="0.984375"/><stop stop-opacity="1" stop-color="rgb(95.527649%, 46.620178%, 20.613098%)" offset="1"/></linearGradient></defs><g fill="#323131" fill-opacity="1"><g transform="translate(70.907992, 276.794739)"><g><path d="M 5.546875 -4.0625 L 5.546875 -32.265625 L 1.890625 -32.75 L 1.890625 -36.609375 L 28.9375 -36.609375 L 29.65625 -28.40625 L 25.5 -28.34375 L 23.8125 -31.96875 L 13.90625 -32.5 L 13.90625 -20.140625 L 20.71875 -20.421875 L 22.265625 -24.046875 L 25.796875 -24.046875 L 25.796875 -12.03125 L 21.875 -12.03125 L 20.8125 -15.890625 L 13.953125 -15.984375 L 13.953125 -4.390625 L 21.484375 -3.765625 L 21.484375 0 L 2.03125 0 L 2.03125 -3.28125 Z M 5.546875 -4.0625 "/></g></g></g><g fill="#323131" fill-opacity="1"><g transform="translate(102.107678, 276.794739)"><g><path d="M 9.375 -40.953125 C 10.914062 -40.953125 12.101562 -40.554688 12.9375 -39.765625 C 13.78125 -38.984375 14.203125 -37.898438 14.203125 -36.515625 C 14.203125 -34.960938 13.628906 -33.695312 12.484375 -32.71875 C 11.335938 -31.738281 9.992188 -31.25 8.453125 -31.25 C 7.097656 -31.25 5.953125 -31.664062 5.015625 -32.5 C 4.085938 -33.34375 3.625 -34.40625 3.625 -35.6875 C 3.625 -36.65625 3.90625 -37.539062 4.46875 -38.34375 C 5.03125 -39.15625 5.753906 -39.789062 6.640625 -40.25 C 7.523438 -40.71875 8.4375 -40.953125 9.375 -40.953125 Z M 13.375 -26.5625 L 13.375 -3.8125 L 16.765625 -3.1875 L 16.765625 0 L 1.890625 0 L 1.890625 -3.1875 L 5.015625 -3.859375 L 5.015625 -18.546875 L 2.03125 -21.921875 L 2.03125 -24.15625 L 11.34375 -27.140625 Z M 13.375 -26.5625 "/></g></g></g><g fill="#323131" fill-opacity="1"><g transform="translate(119.73598, 276.794739)"><g><path d="M 5.21875 -3.8125 L 5.21875 -19.3125 L 2.03125 -21.59375 L 2.03125 -24.53125 L 10.765625 -27.140625 L 12.453125 -26.703125 L 12.453125 -22.125 C 12.679688 -22.988281 13.171875 -23.804688 13.921875 -24.578125 C 14.679688 -25.359375 15.546875 -25.976562 16.515625 -26.4375 C 17.484375 -26.90625 18.382812 -27.140625 19.21875 -27.140625 C 20.539062 -27.140625 21.394531 -27.046875 21.78125 -26.859375 L 21.78125 -19.421875 C 21.425781 -19.773438 20.820312 -20.046875 19.96875 -20.234375 C 19.113281 -20.429688 18.378906 -20.53125 17.765625 -20.53125 C 16.867188 -20.53125 16.023438 -20.441406 15.234375 -20.265625 C 14.441406 -20.085938 13.890625 -19.882812 13.578125 -19.65625 L 13.578125 -4.015625 L 19.078125 -3.1875 L 19.078125 0 L 2.3125 0 L 2.3125 -3.1875 Z M 5.21875 -3.8125 "/></g></g></g><g fill="#323131" fill-opacity="1"><g transform="translate(142.532037, 276.794739)"><g><path d="M 16.171875 -27.140625 C 19.753906 -27.140625 22.484375 -26.242188 24.359375 -24.453125 C 26.242188 -22.671875 27.1875 -20.070312 27.1875 -16.65625 C 27.1875 -15.238281 27.078125 -13.859375 26.859375 -12.515625 L 10.4375 -12.515625 C 10.65625 -9.710938 11.375 -7.601562 12.59375 -6.1875 C 13.820312 -4.769531 15.597656 -4.0625 17.921875 -4.0625 C 20.492188 -4.0625 22.988281 -4.59375 25.40625 -5.65625 L 26.65625 -2.703125 C 25.40625 -1.640625 23.722656 -0.8125 21.609375 -0.21875 C 19.503906 0.375 17.484375 0.671875 15.546875 0.671875 C 11.140625 0.671875 7.734375 -0.476562 5.328125 -2.78125 C 2.929688 -5.082031 1.734375 -8.328125 1.734375 -12.515625 C 1.734375 -15.347656 2.34375 -17.875 3.5625 -20.09375 C 4.789062 -22.3125 6.5 -24.039062 8.6875 -25.28125 C 10.882812 -26.519531 13.378906 -27.140625 16.171875 -27.140625 Z M 15.453125 -23.859375 C 12.523438 -23.859375 10.851562 -21.332031 10.4375 -16.28125 L 19.078125 -16.28125 C 19.203125 -17.4375 19.265625 -18.414062 19.265625 -19.21875 C 19.265625 -22.3125 17.992188 -23.859375 15.453125 -23.859375 Z M 15.453125 -23.859375 "/></g></g></g><g fill="#323131" fill-opacity="1"><g transform="translate(171.751557, 276.794739)"><g><path d="M 13.46875 -4.203125 L 13.46875 -32.65625 L 7 -32.015625 L 5.359375 -26.953125 L 1.109375 -26.75 L 1.6875 -36.609375 L 33.234375 -36.609375 L 33.234375 -27.046875 L 29.890625 -26.609375 L 28.0625 -32.015625 L 21.828125 -32.65625 L 21.828125 -4.25 L 27.140625 -3.28125 L 27.140625 0 L 8.0625 0 L 8.0625 -3.28125 Z M 13.46875 -4.203125 "/></g></g></g><g fill="#323131" fill-opacity="1"><g transform="translate(206.090524, 276.794739)"><g><path d="M 9.375 -40.953125 C 10.914062 -40.953125 12.101562 -40.554688 12.9375 -39.765625 C 13.78125 -38.984375 14.203125 -37.898438 14.203125 -36.515625 C 14.203125 -34.960938 13.628906 -33.695312 12.484375 -32.71875 C 11.335938 -31.738281 9.992188 -31.25 8.453125 -31.25 C 7.097656 -31.25 5.953125 -31.664062 5.015625 -32.5 C 4.085938 -33.34375 3.625 -34.40625 3.625 -35.6875 C 3.625 -36.65625 3.90625 -37.539062 4.46875 -38.34375 C 5.03125 -39.15625 5.753906 -39.789062 6.640625 -40.25 C 7.523438 -40.71875 8.4375 -40.953125 9.375 -40.953125 Z M 13.375 -26.5625 L 13.375 -3.8125 L 16.765625 -3.1875 L 16.765625 0 L 1.890625 0 L 1.890625 -3.1875 L 5.015625 -3.859375 L 5.015625 -18.546875 L 2.03125 -21.921875 L 2.03125 -24.15625 L 11.34375 -27.140625 Z M 13.375 -26.5625 "/></g></g></g><g fill="#323131" fill-opacity="1"><g transform="translate(223.718826, 276.794739)"><g><path d="M 5.21875 -3.8125 L 5.21875 -19.3125 L 2.03125 -21.59375 L 2.03125 -24.53125 L 10.8125 -27.140625 L 12.5625 -26.703125 L 12.5625 -23.1875 C 13.59375 -24.3125 14.910156 -25.25 16.515625 -26 C 18.128906 -26.757812 19.675781 -27.15625 21.15625 -27.1875 C 25.3125 -27.414062 27.984375 -26.175781 29.171875 -23.46875 C 30.390625 -24.664062 31.75 -25.578125 33.25 -26.203125 C 34.75 -26.828125 36.300781 -27.140625 37.90625 -27.140625 C 41 -27.140625 43.242188 -26.164062 44.640625 -24.21875 C 46.046875 -22.269531 46.75 -19.492188 46.75 -15.890625 L 46.75 -3.859375 L 50.03125 -3.1875 L 50.03125 0 L 35.640625 0 L 35.640625 -3.1875 L 38.390625 -3.859375 L 38.390625 -14.828125 C 38.390625 -16.628906 38.269531 -18.007812 38.03125 -18.96875 C 37.789062 -19.9375 37.320312 -20.644531 36.625 -21.09375 C 35.9375 -21.550781 34.898438 -21.78125 33.515625 -21.78125 C 33.003906 -21.78125 32.429688 -21.664062 31.796875 -21.4375 C 31.171875 -21.21875 30.601562 -20.929688 30.09375 -20.578125 C 30.25 -19.703125 30.328125 -18.378906 30.328125 -16.609375 L 30.328125 -3.859375 L 33.65625 -3.1875 L 33.65625 0 L 18.640625 0 L 18.640625 -3.1875 L 21.96875 -3.90625 L 21.96875 -15.015625 C 21.96875 -17.367188 21.660156 -19.082031 21.046875 -20.15625 C 20.441406 -21.238281 19.316406 -21.78125 17.671875 -21.78125 C 16.835938 -21.78125 16.035156 -21.664062 15.265625 -21.4375 C 14.492188 -21.21875 13.929688 -20.929688 13.578125 -20.578125 L 13.578125 -3.859375 L 16.65625 -3.1875 L 16.65625 0 L 2.3125 0 L 2.3125 -3.1875 Z M 5.21875 -3.8125 "/></g></g></g><g fill="#323131" fill-opacity="1"><g transform="translate(274.865053, 276.794739)"><g><path d="M 16.171875 -27.140625 C 19.753906 -27.140625 22.484375 -26.242188 24.359375 -24.453125 C 26.242188 -22.671875 27.1875 -20.070312 27.1875 -16.65625 C 27.1875 -15.238281 27.078125 -13.859375 26.859375 -12.515625 L 10.4375 -12.515625 C 10.65625 -9.710938 11.375 -7.601562 12.59375 -6.1875 C 13.820312 -4.769531 15.597656 -4.0625 17.921875 -4.0625 C 20.492188 -4.0625 22.988281 -4.59375 25.40625 -5.65625 L 26.65625 -2.703125 C 25.40625 -1.640625 23.722656 -0.8125 21.609375 -0.21875 C 19.503906 0.375 17.484375 0.671875 15.546875 0.671875 C 11.140625 0.671875 7.734375 -0.476562 5.328125 -2.78125 C 2.929688 -5.082031 1.734375 -8.328125 1.734375 -12.515625 C 1.734375 -15.347656 2.34375 -17.875 3.5625 -20.09375 C 4.789062 -22.3125 6.5 -24.039062 8.6875 -25.28125 C 10.882812 -26.519531 13.378906 -27.140625 16.171875 -27.140625 Z M 15.453125 -23.859375 C 12.523438 -23.859375 10.851562 -21.332031 10.4375 -16.28125 L 19.078125 -16.28125 C 19.203125 -17.4375 19.265625 -18.414062 19.265625 -19.21875 C 19.265625 -22.3125 17.992188 -23.859375 15.453125 -23.859375 Z M 15.453125 -23.859375 "/></g></g></g><g clip-path="url(#b6b658e631)"><g clip-path="url(#256c966b1d)"><path fill="url(#342e113b13)" d="M 134.722656 64.289062 L 134.722656 218.007812 L 240.585938 218.007812 L 240.585938 64.289062 Z M 134.722656 64.289062 " fill-rule="nonzero"/></g></g></svg>