<svg xmlns="http://www.w3.org/2000/svg" xmlns:xlink="http://www.w3.org/1999/xlink" width="500" zoomAndPan="magnify" viewBox="0 0 375 374.999991" height="500" preserveAspectRatio="xMidYMid meet" version="1.0"><defs><g/></defs><g fill="#ffffff" fill-opacity="1"><g transform="translate(37.516253, 226.503243)"><g><path d="M 40.84375 -64.203125 C 41.5625 -66.085938 42.472656 -67.941406 43.578125 -69.765625 C 44.691406 -71.585938 45.976562 -73.085938 47.4375 -74.265625 C 48.90625 -75.441406 50.453125 -76.03125 52.078125 -76.03125 C 53.773438 -76.03125 55.160156 -75.539062 56.234375 -74.5625 C 57.304688 -73.582031 57.84375 -72.3125 57.84375 -70.75 C 57.84375 -69.25 57.160156 -67.832031 55.796875 -66.5 C 54.429688 -65.164062 52.6875 -64.007812 50.5625 -63.03125 C 48.445312 -62.050781 46.21875 -61.234375 43.875 -60.578125 C 43.03125 -58.429688 42.019531 -55.613281 40.84375 -52.125 C 39.675781 -48.644531 38.457031 -44.851562 37.1875 -40.75 C 35.914062 -36.644531 34.722656 -32.570312 33.609375 -28.53125 C 32.503906 -24.488281 31.609375 -20.789062 30.921875 -17.4375 C 30.242188 -14.082031 29.90625 -11.460938 29.90625 -9.578125 C 29.90625 -6.972656 30.34375 -4.804688 31.21875 -3.078125 C 32.101562 -1.347656 33.648438 -0.484375 35.859375 -0.484375 C 38.398438 -0.484375 40.828125 -1.539062 43.140625 -3.65625 C 45.453125 -5.78125 47.664062 -8.632812 49.78125 -12.21875 C 51.90625 -15.800781 53.941406 -19.820312 55.890625 -24.28125 C 57.847656 -28.75 59.804688 -33.328125 61.765625 -38.015625 C 63.773438 -42.898438 65.820312 -47.65625 67.90625 -52.28125 C 70 -56.90625 72.164062 -61.070312 74.40625 -64.78125 C 76.65625 -68.5 79.082031 -71.445312 81.6875 -73.625 C 84.300781 -75.8125 87.132812 -76.90625 90.1875 -76.90625 C 90.78125 -76.90625 91.285156 -76.707031 91.703125 -76.3125 C 92.128906 -75.925781 92.34375 -75.441406 92.34375 -74.859375 C 92.34375 -74.265625 92.144531 -73.769531 91.75 -73.375 C 91.363281 -72.988281 90.878906 -72.796875 90.296875 -72.796875 C 87.878906 -72.796875 85.597656 -71.785156 83.453125 -69.765625 C 81.304688 -67.742188 79.222656 -65.007812 77.203125 -61.5625 C 75.179688 -58.113281 73.207031 -54.222656 71.28125 -49.890625 C 69.363281 -45.554688 67.457031 -41.078125 65.5625 -36.453125 C 63.476562 -31.492188 61.363281 -26.617188 59.21875 -21.828125 C 57.070312 -17.046875 54.820312 -12.734375 52.46875 -8.890625 C 50.125 -5.046875 47.582031 -1.984375 44.84375 0.296875 C 42.113281 2.578125 39.117188 3.71875 35.859375 3.71875 C 32.078125 3.71875 29.453125 2.445312 27.984375 -0.09375 C 26.523438 -2.632812 25.796875 -5.726562 25.796875 -9.375 C 25.796875 -11.53125 26.101562 -14.234375 26.71875 -17.484375 C 27.34375 -20.742188 28.160156 -24.296875 29.171875 -28.140625 C 30.179688 -31.984375 31.285156 -35.859375 32.484375 -39.765625 C 33.691406 -43.679688 34.863281 -47.378906 36 -50.859375 C 37.144531 -54.347656 38.175781 -57.296875 39.09375 -59.703125 C 38.113281 -59.503906 37.132812 -59.320312 36.15625 -59.15625 C 35.175781 -59 34.164062 -58.859375 33.125 -58.734375 C 30.0625 -58.273438 26.835938 -57.71875 23.453125 -57.0625 C 20.066406 -56.414062 16.90625 -55.519531 13.96875 -54.375 C 11.039062 -53.238281 8.664062 -51.738281 6.84375 -49.875 C 5.019531 -48.019531 4.109375 -45.628906 4.109375 -42.703125 C 4.109375 -40.097656 4.851562 -37.976562 6.34375 -36.34375 C 7.84375 -34.71875 9.671875 -33.90625 11.828125 -33.90625 C 12.410156 -33.90625 12.894531 -33.691406 13.28125 -33.265625 C 13.675781 -32.847656 13.875 -32.347656 13.875 -31.765625 C 13.8125 -31.242188 13.613281 -30.785156 13.28125 -30.390625 C 12.957031 -29.992188 12.4375 -29.796875 11.71875 -29.796875 C 8.332031 -29.796875 5.53125 -31.066406 3.3125 -33.609375 C 1.101562 -36.148438 0 -39.25 0 -42.90625 C 0 -46.613281 1.007812 -49.640625 3.03125 -51.984375 C 5.050781 -54.328125 7.6875 -56.179688 10.9375 -57.546875 C 14.195312 -58.921875 17.71875 -60 21.5 -60.78125 C 25.28125 -61.5625 28.925781 -62.210938 32.4375 -62.734375 C 33.9375 -62.992188 35.398438 -63.238281 36.828125 -63.46875 C 38.265625 -63.695312 39.601562 -63.941406 40.84375 -64.203125 Z M 45.828125 -65.46875 C 47.910156 -65.925781 49.703125 -66.722656 51.203125 -67.859375 C 52.703125 -69.003906 53.453125 -69.96875 53.453125 -70.75 C 53.453125 -71.65625 52.992188 -72.109375 52.078125 -72.109375 C 51.035156 -72.109375 49.925781 -71.425781 48.75 -70.0625 C 47.582031 -68.695312 46.609375 -67.164062 45.828125 -65.46875 Z M 45.828125 -65.46875 "/></g></g></g><g fill="#ffffff" fill-opacity="1"><g transform="translate(107.276219, 226.503243)"><g><path d="M 15.921875 -51.203125 C 15.015625 -51.203125 14.21875 -51.523438 13.53125 -52.171875 C 12.851562 -52.828125 12.515625 -53.613281 12.515625 -54.53125 C 12.515625 -55.4375 12.851562 -56.210938 13.53125 -56.859375 C 14.21875 -57.515625 15.015625 -57.84375 15.921875 -57.84375 C 16.835938 -57.84375 17.617188 -57.515625 18.265625 -56.859375 C 18.921875 -56.210938 19.25 -55.4375 19.25 -54.53125 C 19.25 -53.613281 18.921875 -52.828125 18.265625 -52.171875 C 17.617188 -51.523438 16.835938 -51.203125 15.921875 -51.203125 Z M 22.375 -23.25 C 23.21875 -22.925781 23.640625 -22.3125 23.640625 -21.40625 C 23.640625 -21.207031 23.578125 -20.910156 23.453125 -20.515625 C 21.890625 -17.003906 20.242188 -13.679688 18.515625 -10.546875 C 16.785156 -7.421875 14.863281 -4.878906 12.75 -2.921875 C 10.632812 -0.972656 8.207031 0 5.46875 0 C 3.125 0 1.347656 -0.8125 0.140625 -2.4375 C -1.054688 -4.070312 -1.625 -5.992188 -1.5625 -8.203125 C -1.5 -10.097656 -1.078125 -12.539062 -0.296875 -15.53125 C 0.484375 -18.53125 1.476562 -21.753906 2.6875 -25.203125 C 3.894531 -28.660156 5.148438 -32.097656 6.453125 -35.515625 C 7.753906 -38.941406 8.925781 -42.054688 9.96875 -44.859375 C 10.289062 -45.765625 10.910156 -46.21875 11.828125 -46.21875 C 12.472656 -46.21875 13.039062 -45.988281 13.53125 -45.53125 C 14.019531 -45.082031 14.101562 -44.429688 13.78125 -43.578125 C 11.4375 -36.929688 9.515625 -31.523438 8.015625 -27.359375 C 6.515625 -23.191406 5.375 -19.898438 4.59375 -17.484375 C 3.8125 -15.078125 3.273438 -13.1875 2.984375 -11.8125 C 2.691406 -10.445312 2.546875 -9.242188 2.546875 -8.203125 C 2.546875 -5.472656 3.519531 -4.109375 5.46875 -4.109375 C 7.488281 -4.109375 9.34375 -5.050781 11.03125 -6.9375 C 12.726562 -8.820312 14.289062 -11.164062 15.71875 -13.96875 C 17.15625 -16.769531 18.460938 -19.507812 19.640625 -22.1875 C 20.097656 -23.03125 20.75 -23.453125 21.59375 -23.453125 C 21.726562 -23.453125 21.859375 -23.4375 21.984375 -23.40625 C 22.117188 -23.375 22.25 -23.320312 22.375 -23.25 Z M 22.375 -23.25 "/></g></g></g><g fill="#ffffff" fill-opacity="1"><g transform="translate(125.25358, 226.503243)"><g><path d="M 32.25 -17.296875 C 32.1875 -13.773438 31.351562 -10.726562 29.75 -8.15625 C 28.15625 -5.582031 26.019531 -3.578125 23.34375 -2.140625 C 20.675781 -0.710938 17.679688 0 14.359375 0 C 11.691406 0 9.234375 -0.632812 6.984375 -1.90625 C 4.734375 -3.175781 2.941406 -4.898438 1.609375 -7.078125 C 0.273438 -9.265625 -0.390625 -11.660156 -0.390625 -14.265625 C -0.0664062 -18.691406 1.25 -22.222656 3.5625 -24.859375 C 5.875 -27.503906 8.988281 -28.828125 12.90625 -28.828125 C 15.4375 -28.828125 17.613281 -27.847656 19.4375 -25.890625 C 21.269531 -23.941406 22.21875 -21.628906 22.28125 -18.953125 C 22.28125 -18.367188 22.082031 -17.878906 21.6875 -17.484375 C 21.300781 -17.097656 20.816406 -16.90625 20.234375 -16.90625 C 19.640625 -16.90625 19.144531 -17.097656 18.75 -17.484375 C 18.363281 -17.878906 18.171875 -18.367188 18.171875 -18.953125 C 18.109375 -20.648438 17.554688 -22.035156 16.515625 -23.109375 C 15.472656 -24.179688 14.300781 -24.71875 13 -24.71875 C 10.320312 -24.71875 8.148438 -23.722656 6.484375 -21.734375 C 4.828125 -19.753906 3.90625 -17.265625 3.71875 -14.265625 C 3.71875 -11.265625 4.789062 -8.820312 6.9375 -6.9375 C 9.082031 -5.050781 11.554688 -4.109375 14.359375 -4.109375 C 18.335938 -4.109375 21.613281 -5.3125 24.1875 -7.71875 C 26.757812 -10.125 28.078125 -13.347656 28.140625 -17.390625 C 28.140625 -18.828125 27.925781 -20.210938 27.5 -21.546875 C 27.082031 -22.878906 26.398438 -24.472656 25.453125 -26.328125 C 24.503906 -28.191406 23.15625 -30.617188 21.40625 -33.609375 C 20.6875 -32.898438 20.035156 -32.15625 19.453125 -31.375 C 19.054688 -30.851562 18.53125 -30.59375 17.875 -30.59375 C 17.226562 -30.59375 16.742188 -30.753906 16.421875 -31.078125 C 15.960938 -31.460938 15.734375 -32.015625 15.734375 -32.734375 C 15.734375 -33.128906 15.894531 -33.550781 16.21875 -34 C 17.394531 -35.375 18.503906 -36.582031 19.546875 -37.625 C 19.085938 -38.664062 18.726562 -39.722656 18.46875 -40.796875 C 18.207031 -41.867188 18.078125 -42.960938 18.078125 -44.078125 C 18.078125 -46.609375 18.757812 -48.800781 20.125 -50.65625 C 21.5 -52.519531 23.195312 -53.453125 25.21875 -53.453125 C 26.644531 -53.453125 27.765625 -52.960938 28.578125 -51.984375 C 29.390625 -51.003906 29.832031 -49.800781 29.90625 -48.375 C 29.90625 -46.414062 29.363281 -44.410156 28.28125 -42.359375 C 27.207031 -40.304688 25.921875 -38.4375 24.421875 -36.75 C 26.117188 -33.613281 27.535156 -31.019531 28.671875 -28.96875 C 29.816406 -26.914062 30.695312 -25.007812 31.3125 -23.25 C 31.9375 -21.5 32.25 -19.515625 32.25 -17.296875 Z M 22.671875 -41.046875 C 23.453125 -42.148438 24.148438 -43.382812 24.765625 -44.75 C 25.390625 -46.125 25.703125 -47.332031 25.703125 -48.375 C 25.703125 -49.09375 25.488281 -49.414062 25.0625 -49.34375 C 24.632812 -49.28125 24.160156 -48.988281 23.640625 -48.46875 C 23.054688 -47.882812 22.664062 -47.203125 22.46875 -46.421875 C 22.28125 -45.640625 22.1875 -44.890625 22.1875 -44.171875 C 22.1875 -43.648438 22.234375 -43.128906 22.328125 -42.609375 C 22.421875 -42.085938 22.535156 -41.566406 22.671875 -41.046875 Z M 22.671875 -41.046875 "/></g></g></g><g fill="#ffffff" fill-opacity="1"><g transform="translate(162.869242, 226.503243)"><g><path d="M 43.6875 -23.25 C 44.46875 -22.800781 44.859375 -22.1875 44.859375 -21.40625 C 44.859375 -21.207031 44.789062 -20.910156 44.65625 -20.515625 C 41.46875 -13.222656 38.519531 -7.976562 35.8125 -4.78125 C 33.113281 -1.59375 30.132812 0 26.875 0 C 24.71875 0 23.085938 -0.617188 21.984375 -1.859375 C 20.878906 -3.097656 20.164062 -4.789062 19.84375 -6.9375 C 18.40625 -4.914062 16.644531 -3.253906 14.5625 -1.953125 C 12.476562 -0.648438 10.328125 0 8.109375 0 L 8.015625 0 C 1.753906 0 -1.375 -3.382812 -1.375 -10.15625 C -1.375 -11.394531 -1.191406 -12.78125 -0.828125 -14.3125 C -0.472656 -15.84375 0.125 -17.863281 0.96875 -20.375 C 1.820312 -22.882812 3.015625 -26.125 4.546875 -30.09375 C 6.078125 -34.070312 8.015625 -39.085938 10.359375 -45.140625 C 10.679688 -45.992188 11.300781 -46.421875 12.21875 -46.421875 C 13.0625 -46.421875 13.660156 -46.125 14.015625 -45.53125 C 14.378906 -44.945312 14.429688 -44.332031 14.171875 -43.6875 C 12.085938 -38.144531 10.359375 -33.566406 8.984375 -29.953125 C 7.617188 -26.335938 6.507812 -23.390625 5.65625 -21.109375 C 4.8125 -18.828125 4.175781 -17.035156 3.75 -15.734375 C 3.332031 -14.429688 3.054688 -13.367188 2.921875 -12.546875 C 2.796875 -11.734375 2.734375 -10.9375 2.734375 -10.15625 C 2.734375 -6.125 4.523438 -4.109375 8.109375 -4.109375 C 10.128906 -4.109375 12.097656 -4.9375 14.015625 -6.59375 C 15.941406 -8.257812 17.71875 -10.753906 19.34375 -14.078125 C 21.039062 -17.523438 22.847656 -21.835938 24.765625 -27.015625 C 26.691406 -32.191406 28.925781 -38.234375 31.46875 -45.140625 C 31.789062 -45.992188 32.410156 -46.421875 33.328125 -46.421875 C 34.109375 -46.421875 34.707031 -46.125 35.125 -45.53125 C 35.550781 -44.945312 35.632812 -44.332031 35.375 -43.6875 C 34.332031 -40.882812 33.335938 -38.195312 32.390625 -35.625 C 31.453125 -33.050781 30.625 -30.785156 29.90625 -28.828125 C 28.082031 -23.804688 26.628906 -19.4375 25.546875 -15.71875 C 24.472656 -12.007812 23.9375 -9.503906 23.9375 -8.203125 C 23.9375 -5.472656 24.914062 -4.109375 26.875 -4.109375 C 29.21875 -4.109375 31.445312 -5.554688 33.5625 -8.453125 C 35.6875 -11.347656 38.144531 -15.925781 40.9375 -22.1875 C 41.269531 -23.03125 41.890625 -23.453125 42.796875 -23.453125 C 42.992188 -23.453125 43.289062 -23.382812 43.6875 -23.25 Z M 43.6875 -23.25 "/></g></g></g><g fill="#ffffff" fill-opacity="1"><g transform="translate(202.048161, 226.503243)"><g><path d="M 43.78125 -23.25 C 44.625 -22.863281 45.046875 -22.25 45.046875 -21.40625 C 45.046875 -21.207031 44.984375 -20.910156 44.859375 -20.515625 L 44.75 -20.234375 C 43.84375 -18.210938 42.816406 -16.023438 41.671875 -13.671875 C 40.535156 -11.328125 39.234375 -9.113281 37.765625 -7.03125 C 36.296875 -4.945312 34.679688 -3.253906 32.921875 -1.953125 C 31.171875 -0.648438 29.1875 0 26.96875 0 C 24.625 0 22.863281 -0.765625 21.6875 -2.296875 C 20.519531 -3.828125 19.9375 -5.796875 19.9375 -8.203125 C 16.03125 -2.734375 11.957031 0 7.71875 0 C 4.976562 0 2.957031 -1.023438 1.65625 -3.078125 C 0.351562 -5.128906 -0.296875 -7.617188 -0.296875 -10.546875 C -0.296875 -13.085938 0.078125 -15.9375 0.828125 -19.09375 C 1.578125 -22.257812 2.617188 -25.4375 3.953125 -28.625 C 5.285156 -31.820312 6.847656 -34.738281 8.640625 -37.375 C 10.429688 -40.007812 12.398438 -42.140625 14.546875 -43.765625 C 16.703125 -45.398438 18.953125 -46.21875 21.296875 -46.21875 C 25.535156 -46.21875 28.5 -44.492188 30.1875 -41.046875 C 30.519531 -41.890625 30.816406 -42.671875 31.078125 -43.390625 C 31.335938 -44.109375 31.597656 -44.789062 31.859375 -45.4375 C 32.179688 -46.28125 32.832031 -46.703125 33.8125 -46.703125 C 34.59375 -46.703125 35.160156 -46.394531 35.515625 -45.78125 C 35.878906 -45.164062 35.929688 -44.5625 35.671875 -43.96875 L 30.78125 -30.875 C 29.019531 -25.925781 27.453125 -21.445312 26.078125 -17.4375 C 24.710938 -13.4375 24.03125 -10.359375 24.03125 -8.203125 C 24.03125 -5.472656 25.007812 -4.109375 26.96875 -4.109375 C 28.46875 -4.109375 29.882812 -4.675781 31.21875 -5.8125 C 32.550781 -6.957031 33.804688 -8.441406 34.984375 -10.265625 C 36.160156 -12.085938 37.25 -14.023438 38.25 -16.078125 C 39.257812 -18.128906 40.15625 -20.066406 40.9375 -21.890625 L 41.046875 -22.1875 C 41.492188 -23.03125 42.113281 -23.453125 42.90625 -23.453125 C 43.09375 -23.453125 43.382812 -23.382812 43.78125 -23.25 Z M 7.625 -4.109375 C 9.570312 -4.109375 11.410156 -4.90625 13.140625 -6.5 C 14.867188 -8.09375 16.460938 -10.144531 17.921875 -12.65625 C 19.390625 -15.164062 20.726562 -17.851562 21.9375 -20.71875 C 23.144531 -23.582031 24.238281 -26.253906 25.21875 -28.734375 L 27.5625 -34.984375 C 27.488281 -37.265625 26.863281 -39.019531 25.6875 -40.25 C 24.519531 -41.488281 23.054688 -42.109375 21.296875 -42.109375 C 19.472656 -42.046875 17.710938 -41.265625 16.015625 -39.765625 C 14.328125 -38.273438 12.75 -36.335938 11.28125 -33.953125 C 9.820312 -31.578125 8.535156 -29.003906 7.421875 -26.234375 C 6.316406 -23.460938 5.453125 -20.757812 4.828125 -18.125 C 4.210938 -15.488281 3.875 -13.191406 3.8125 -11.234375 C 3.8125 -9.085938 4.085938 -7.363281 4.640625 -6.0625 C 5.191406 -4.757812 6.1875 -4.109375 7.625 -4.109375 Z M 7.625 -4.109375 "/></g></g></g><g fill="#ffffff" fill-opacity="1"><g transform="translate(241.422476, 226.503243)"><g><path d="M 24.625 -23.25 C 25.40625 -22.800781 25.796875 -22.1875 25.796875 -21.40625 C 25.796875 -21.207031 25.734375 -20.910156 25.609375 -20.515625 C 23.710938 -16.484375 21.785156 -12.914062 19.828125 -9.8125 C 17.878906 -6.71875 15.75 -4.304688 13.4375 -2.578125 C 11.125 -0.859375 8.46875 0 5.46875 0 C 3.125 0 1.332031 -0.78125 0.09375 -2.34375 C -1.144531 -3.90625 -1.765625 -5.859375 -1.765625 -8.203125 C -1.765625 -9.640625 -1.503906 -11.382812 -0.984375 -13.4375 C -0.460938 -15.488281 0.414062 -18.4375 1.65625 -22.28125 C 2.957031 -26.125 4.328125 -30.082031 5.765625 -34.15625 C 7.203125 -38.226562 8.632812 -42.28125 10.0625 -46.3125 L 15.140625 -61.171875 C 15.335938 -61.691406 15.695312 -62.066406 16.21875 -62.296875 C 16.738281 -62.523438 17.257812 -62.570312 17.78125 -62.4375 C 18.300781 -62.25 18.691406 -61.890625 18.953125 -61.359375 C 19.210938 -60.835938 19.25 -60.316406 19.0625 -59.796875 L 13.96875 -44.953125 C 12.601562 -41.046875 11.21875 -37.117188 9.8125 -33.171875 C 8.414062 -29.234375 7 -25.179688 5.5625 -21.015625 C 3.414062 -14.367188 2.34375 -10.097656 2.34375 -8.203125 C 2.34375 -5.472656 3.382812 -4.109375 5.46875 -4.109375 C 7.8125 -4.109375 9.925781 -4.921875 11.8125 -6.546875 C 13.707031 -8.171875 15.46875 -10.367188 17.09375 -13.140625 C 18.726562 -15.910156 20.296875 -18.957031 21.796875 -22.28125 C 22.242188 -23.0625 22.894531 -23.453125 23.75 -23.453125 C 23.9375 -23.453125 24.226562 -23.382812 24.625 -23.25 Z M 24.625 -23.25 "/></g></g></g><g fill="#ffffff" fill-opacity="1"><g transform="translate(261.549302, 226.503243)"><g><path d="M 15.921875 -51.203125 C 15.015625 -51.203125 14.21875 -51.523438 13.53125 -52.171875 C 12.851562 -52.828125 12.515625 -53.613281 12.515625 -54.53125 C 12.515625 -55.4375 12.851562 -56.210938 13.53125 -56.859375 C 14.21875 -57.515625 15.015625 -57.84375 15.921875 -57.84375 C 16.835938 -57.84375 17.617188 -57.515625 18.265625 -56.859375 C 18.921875 -56.210938 19.25 -55.4375 19.25 -54.53125 C 19.25 -53.613281 18.921875 -52.828125 18.265625 -52.171875 C 17.617188 -51.523438 16.835938 -51.203125 15.921875 -51.203125 Z M 22.375 -23.25 C 23.21875 -22.925781 23.640625 -22.3125 23.640625 -21.40625 C 23.640625 -21.207031 23.578125 -20.910156 23.453125 -20.515625 C 21.890625 -17.003906 20.242188 -13.679688 18.515625 -10.546875 C 16.785156 -7.421875 14.863281 -4.878906 12.75 -2.921875 C 10.632812 -0.972656 8.207031 0 5.46875 0 C 3.125 0 1.347656 -0.8125 0.140625 -2.4375 C -1.054688 -4.070312 -1.625 -5.992188 -1.5625 -8.203125 C -1.5 -10.097656 -1.078125 -12.539062 -0.296875 -15.53125 C 0.484375 -18.53125 1.476562 -21.753906 2.6875 -25.203125 C 3.894531 -28.660156 5.148438 -32.097656 6.453125 -35.515625 C 7.753906 -38.941406 8.925781 -42.054688 9.96875 -44.859375 C 10.289062 -45.765625 10.910156 -46.21875 11.828125 -46.21875 C 12.472656 -46.21875 13.039062 -45.988281 13.53125 -45.53125 C 14.019531 -45.082031 14.101562 -44.429688 13.78125 -43.578125 C 11.4375 -36.929688 9.515625 -31.523438 8.015625 -27.359375 C 6.515625 -23.191406 5.375 -19.898438 4.59375 -17.484375 C 3.8125 -15.078125 3.273438 -13.1875 2.984375 -11.8125 C 2.691406 -10.445312 2.546875 -9.242188 2.546875 -8.203125 C 2.546875 -5.472656 3.519531 -4.109375 5.46875 -4.109375 C 7.488281 -4.109375 9.34375 -5.050781 11.03125 -6.9375 C 12.726562 -8.820312 14.289062 -11.164062 15.71875 -13.96875 C 17.15625 -16.769531 18.460938 -19.507812 19.640625 -22.1875 C 20.097656 -23.03125 20.75 -23.453125 21.59375 -23.453125 C 21.726562 -23.453125 21.859375 -23.4375 21.984375 -23.40625 C 22.117188 -23.375 22.25 -23.320312 22.375 -23.25 Z M 22.375 -23.25 "/></g></g></g><g fill="#ffffff" fill-opacity="1"><g transform="translate(279.526663, 226.503243)"><g><path d="M 32.25 -17.296875 C 32.1875 -13.773438 31.351562 -10.726562 29.75 -8.15625 C 28.15625 -5.582031 26.019531 -3.578125 23.34375 -2.140625 C 20.675781 -0.710938 17.679688 0 14.359375 0 C 11.691406 0 9.234375 -0.632812 6.984375 -1.90625 C 4.734375 -3.175781 2.941406 -4.898438 1.609375 -7.078125 C 0.273438 -9.265625 -0.390625 -11.660156 -0.390625 -14.265625 C -0.0664062 -18.691406 1.25 -22.222656 3.5625 -24.859375 C 5.875 -27.503906 8.988281 -28.828125 12.90625 -28.828125 C 15.4375 -28.828125 17.613281 -27.847656 19.4375 -25.890625 C 21.269531 -23.941406 22.21875 -21.628906 22.28125 -18.953125 C 22.28125 -18.367188 22.082031 -17.878906 21.6875 -17.484375 C 21.300781 -17.097656 20.816406 -16.90625 20.234375 -16.90625 C 19.640625 -16.90625 19.144531 -17.097656 18.75 -17.484375 C 18.363281 -17.878906 18.171875 -18.367188 18.171875 -18.953125 C 18.109375 -20.648438 17.554688 -22.035156 16.515625 -23.109375 C 15.472656 -24.179688 14.300781 -24.71875 13 -24.71875 C 10.320312 -24.71875 8.148438 -23.722656 6.484375 -21.734375 C 4.828125 -19.753906 3.90625 -17.265625 3.71875 -14.265625 C 3.71875 -11.265625 4.789062 -8.820312 6.9375 -6.9375 C 9.082031 -5.050781 11.554688 -4.109375 14.359375 -4.109375 C 18.335938 -4.109375 21.613281 -5.3125 24.1875 -7.71875 C 26.757812 -10.125 28.078125 -13.347656 28.140625 -17.390625 C 28.140625 -18.828125 27.925781 -20.210938 27.5 -21.546875 C 27.082031 -22.878906 26.398438 -24.472656 25.453125 -26.328125 C 24.503906 -28.191406 23.15625 -30.617188 21.40625 -33.609375 C 20.6875 -32.898438 20.035156 -32.15625 19.453125 -31.375 C 19.054688 -30.851562 18.53125 -30.59375 17.875 -30.59375 C 17.226562 -30.59375 16.742188 -30.753906 16.421875 -31.078125 C 15.960938 -31.460938 15.734375 -32.015625 15.734375 -32.734375 C 15.734375 -33.128906 15.894531 -33.550781 16.21875 -34 C 17.394531 -35.375 18.503906 -36.582031 19.546875 -37.625 C 19.085938 -38.664062 18.726562 -39.722656 18.46875 -40.796875 C 18.207031 -41.867188 18.078125 -42.960938 18.078125 -44.078125 C 18.078125 -46.609375 18.757812 -48.800781 20.125 -50.65625 C 21.5 -52.519531 23.195312 -53.453125 25.21875 -53.453125 C 26.644531 -53.453125 27.765625 -52.960938 28.578125 -51.984375 C 29.390625 -51.003906 29.832031 -49.800781 29.90625 -48.375 C 29.90625 -46.414062 29.363281 -44.410156 28.28125 -42.359375 C 27.207031 -40.304688 25.921875 -38.4375 24.421875 -36.75 C 26.117188 -33.613281 27.535156 -31.019531 28.671875 -28.96875 C 29.816406 -26.914062 30.695312 -25.007812 31.3125 -23.25 C 31.9375 -21.5 32.25 -19.515625 32.25 -17.296875 Z M 22.671875 -41.046875 C 23.453125 -42.148438 24.148438 -43.382812 24.765625 -44.75 C 25.390625 -46.125 25.703125 -47.332031 25.703125 -48.375 C 25.703125 -49.09375 25.488281 -49.414062 25.0625 -49.34375 C 24.632812 -49.28125 24.160156 -48.988281 23.640625 -48.46875 C 23.054688 -47.882812 22.664062 -47.203125 22.46875 -46.421875 C 22.28125 -45.640625 22.1875 -44.890625 22.1875 -44.171875 C 22.1875 -43.648438 22.234375 -43.128906 22.328125 -42.609375 C 22.421875 -42.085938 22.535156 -41.566406 22.671875 -41.046875 Z M 22.671875 -41.046875 "/></g></g></g><g fill="#ffffff" fill-opacity="1"><g transform="translate(317.142309, 226.503243)"><g><path d="M 24.828125 -23.25 C 25.609375 -22.800781 26 -22.1875 26 -21.40625 C 26 -21.207031 25.929688 -20.910156 25.796875 -20.515625 C 23.910156 -16.484375 21.988281 -12.914062 20.03125 -9.8125 C 18.070312 -6.71875 15.9375 -4.304688 13.625 -2.578125 C 11.3125 -0.859375 8.660156 0 5.671875 0 C 3.328125 0 1.535156 -0.78125 0.296875 -2.34375 C -0.941406 -3.90625 -1.5625 -5.859375 -1.5625 -8.203125 C -1.5625 -9.441406 -1.316406 -11.117188 -0.828125 -13.234375 C -0.335938 -15.359375 0.328125 -17.738281 1.171875 -20.375 C 2.015625 -23.007812 2.957031 -25.664062 4 -28.34375 L 8.984375 -42.3125 L 2.828125 -42.3125 C 2.242188 -42.3125 1.753906 -42.503906 1.359375 -42.890625 C 0.972656 -43.285156 0.78125 -43.773438 0.78125 -44.359375 C 0.78125 -44.878906 0.972656 -45.351562 1.359375 -45.78125 C 1.753906 -46.207031 2.242188 -46.421875 2.828125 -46.421875 L 10.359375 -46.421875 C 10.421875 -46.484375 10.613281 -47.003906 10.9375 -47.984375 C 11.269531 -48.960938 11.679688 -50.164062 12.171875 -51.59375 C 12.660156 -53.03125 13.144531 -54.445312 13.625 -55.84375 C 14.113281 -57.25 14.535156 -58.4375 14.890625 -59.40625 C 15.253906 -60.382812 15.4375 -60.90625 15.4375 -60.96875 C 15.757812 -61.882812 16.410156 -62.34375 17.390625 -62.34375 C 18.109375 -62.34375 18.675781 -62.046875 19.09375 -61.453125 C 19.519531 -60.867188 19.601562 -60.253906 19.34375 -59.609375 C 19.414062 -59.734375 19.253906 -59.226562 18.859375 -58.09375 C 18.460938 -56.957031 17.972656 -55.570312 17.390625 -53.9375 C 16.804688 -52.3125 16.269531 -50.765625 15.78125 -49.296875 C 15.289062 -47.828125 14.945312 -46.867188 14.75 -46.421875 L 21.296875 -46.421875 C 21.890625 -46.421875 22.378906 -46.207031 22.765625 -45.78125 C 23.160156 -45.351562 23.359375 -44.878906 23.359375 -44.359375 C 23.359375 -43.773438 23.160156 -43.285156 22.765625 -42.890625 C 22.378906 -42.503906 21.890625 -42.3125 21.296875 -42.3125 L 13.296875 -42.3125 C 13.035156 -41.394531 12.460938 -39.734375 11.578125 -37.328125 C 10.703125 -34.921875 9.445312 -31.4375 7.8125 -26.875 C 6.445312 -23.09375 5.390625 -19.992188 4.640625 -17.578125 C 3.890625 -15.171875 3.351562 -13.25 3.03125 -11.8125 C 2.707031 -10.382812 2.546875 -9.179688 2.546875 -8.203125 C 2.546875 -5.472656 3.585938 -4.109375 5.671875 -4.109375 C 8.015625 -4.109375 10.128906 -4.921875 12.015625 -6.546875 C 13.910156 -8.171875 15.671875 -10.367188 17.296875 -13.140625 C 18.921875 -15.910156 20.484375 -18.957031 21.984375 -22.28125 C 22.441406 -23.0625 23.09375 -23.453125 23.9375 -23.453125 C 24.132812 -23.453125 24.429688 -23.382812 24.828125 -23.25 Z M 24.828125 -23.25 "/></g></g></g></svg>